<svg xmlns="http://www.w3.org/2000/svg" xmlns:xlink="http://www.w3.org/1999/xlink" version="1.1" x="0px" y="0px" viewBox="0 0 612 990" enable-background="new 0 0 612 792" xml:space="preserve"><g><g><g><path fill-rule="evenodd" clip-rule="evenodd" d="M543.773,178.455c11.618,2.426,7.621,12.051,5.446,17.855     c-3.703,9.874-5.77,15.433-7.405,19.749c-9.947,26.259-18.972,45.068-35.455,64.091c-11.3,13.042-24.223,23.826-39.17,32.769     c-7.736,4.627-15.795,8.307-23.228,12.806c-37.338,22.596-56.374,63.122-68.424,111.362     c-7.273,29.119-9.853,61.457-11.175,96.797c-0.319,8.543-0.286,15.433,0.502,22.444c0.282,2.505,0.277,7.763,0.11,10.199     c-0.055,0.796-0.056,1.061-0.375,1.507c-1.352,1.878-4.325,2.73-7.644,3.265c-9.472,1.524-19.463-0.044-27.12-2.135     c-2.417-0.659-4.22-0.666-4.993-2.779c-1.235-3.379-1.535-8.517-1.535-12.286c0-3.629-1.014-7.598-1.757-10.672     c-7.94-32.805-27.002-55.894-59.636-64.408c-12.822-3.342-31.431-7.574-47.804-6.844c-33.671,1.5-45.669,3.084-77.745,22.791     c-15.345,9.427-24.274,25.539-26.868,47.581c-0.673,5.724-1.142,11.872,0.251,17.075c0.419,1.567,1.337,3.723,1.004,5.524     c-0.278,1.511-3.578,2.91-5.022,3.517c-5.76,2.415-15.354,2.908-22.223,1.632c-4.192-0.779-8.636-2.265-12.554-4.395     c-3.737-2.033-7.281-4.497-8.538-8.412c-0.701-2.186-0.707-4.904-1.004-7.532c-0.818-7.234-1.902-15.29-2.511-22.851     c-2.559-31.779-7.46-59.412-9.667-91.775c-1.455-21.331-2.364-40.406-0.519-60.048c3.846-40.924,5.96-59.548,20.983-87.634     c11.904-22.256,27.828-38.386,51.223-49.372c22.858-10.732,45.138-13.444,76.526-16.046c20.95-1.736,58.011-21.6,86.998-21.895     c4.714-0.047,15.394-0.928,30.877,2.763c9.233,2.201,20.475,6.523,28.389,9.875c31.444,13.313,47.325,42.388,84.431,49.851     c9.78,1.967,21.21,2.076,30.634,0c8.76-1.929,17.02-5.644,23.729-10.044c20.383-13.367,32.822-34.761,44.192-57.375     c1.858-3.694,3.259-8.092,5.775-11.173C534.574,181.657,539.52,177.566,543.773,178.455z M242.707,244.368     c-16.122,8.154-25.482,23.485-33.271,40.175c-5.197,11.137-8.843,23.458-11.048,37.791c-2.151,13.979-2.406,31.17,0.125,45.071     c2.537,13.927,7.703,24.541,15.568,33.27c7.469,8.292,18.513,15.148,31.387,17.578c7.305,1.378,15.647,0.68,21.594-1.382     c6.212-2.153,11.108-5.518,15.317-9.164c6.896-5.977,12.015-12.104,14.564-22.097c1.083-4.248,1.753-10.706-3.139-9.918     c-4.143,0.666-2.915,6.468-3.766,9.918c-1.432,5.801-5.059,10.456-8.914,14.312c-4.142,4.143-8.482,7.215-13.811,9.417     c-5.676,2.347-13.473,3.15-19.962,2.009c-6.451-1.137-12.408-3.654-16.949-6.403c-19.306-11.684-28.419-34.434-26.868-66.039     c1.466-29.864,10.015-51.793,22.85-70.307c6.151-8.873,14.158-16.884,25.863-20.716c5.57-1.824,14.132-2.243,20.59-0.878     c5.823,1.23,12.211,4.175,14.815,8.537c1.344,2.254,2.027,8.66,6.654,6.277c3.413-1.757,0.261-8.174-1.13-10.169     c-5.603-8.036-17.333-12.817-30.76-12.178C254.666,239.841,248.259,241.56,242.707,244.368z M329.587,293.835     c-1.639,1.657-3.021,4.497-3.015,7.657c0.035,13.556,21.971,14.435,21.971,0.126c0-6.691-4.61-11.116-11.173-10.922     C333.506,290.81,331.275,292.125,329.587,293.835z"/></g></g></g><text x="0" y="807" fill="#000000" font-size="5px" font-weight="bold" font-family="'Helvetica Neue', Helvetica, Arial-Unicode, Arial, Sans-serif">Created by Hero Arts</text><text x="0" y="812" fill="#000000" font-size="5px" font-weight="bold" font-family="'Helvetica Neue', Helvetica, Arial-Unicode, Arial, Sans-serif">from the Noun Project</text></svg>